<svg width="24" height="22" viewBox="0 0 24 22" fill="none" xmlns="http://www.w3.org/2000/svg">
<path d="M10.9 1.925L20.799 3.22208L22.213 12.2971L13.021 20.7231C12.8334 20.8949 12.5791 20.9915 12.314 20.9915C12.0488 20.9915 11.7945 20.8949 11.607 20.7231L1.70697 11.6481C1.5195 11.4762 1.41418 11.2431 1.41418 11C1.41418 10.7569 1.5195 10.5238 1.70697 10.3519L10.9 1.925ZM13.728 9.70383C13.9137 9.87405 14.1342 10.0091 14.3769 10.1012C14.6196 10.1933 14.8797 10.2406 15.1423 10.2406C15.405 10.2405 15.665 10.1931 15.9077 10.1009C16.1503 10.0087 16.3708 9.87365 16.5565 9.70338C16.7422 9.5331 16.8894 9.33097 16.9899 9.10851C17.0904 8.88606 17.1421 8.64765 17.142 8.40688C17.142 8.16612 17.0902 7.92772 16.9896 7.7053C16.8891 7.48288 16.7417 7.2808 16.556 7.11058C16.3702 6.94037 16.1497 6.80536 15.907 6.71326C15.6644 6.62117 15.4043 6.57379 15.1416 6.57383C14.6112 6.57391 14.1025 6.76716 13.7275 7.11104C13.3525 7.45493 13.1418 7.92129 13.1419 8.40753C13.142 8.89378 13.3528 9.36007 13.728 9.70383Z" fill="#858585"/>
</svg>
